<svg id="Calque_1" data-name="Calque 1" xmlns="http://www.w3.org/2000/svg" viewBox="0 0 4854.08 1366.31"><defs><style>.cls-1{fill:#fff;}</style></defs><title>Plan de travail 1</title><g id="Calque_2" data-name="Calque 2"><g id="Calque_1-2" data-name="Calque 1-2"><path class="cls-1" d="M716.4,824.31c-4-.8-5.88,2.61-8.38,4.51-28.52,21.71-59.06,39.77-93,51.82a234.32,234.32,0,0,1-98.2,13.2c-27.45-2.22-53.69-9.39-78.13-22.42-1.7-.91-3.78-1.42-5-4.17,3.43-1.41,7-.68,10.37-.8,28.2-1,55.61-5.51,81.09-18.39,12.36-6.25,23.07-14.56,30.89-26.21,1.06-1.57,2.76-3,1.54-5.77-2.49-.56-3.86,1.52-5.41,2.93-16.37,14.88-36,22.26-57.57,25.31-36.74,5.19-72.25-1.57-107.4-11.14-30.9-8.42-60.6-20.21-89.61-33.7-2.94-1.37-6.15-2.43-9.43-6,36-2.9,71-6,99-34.75-10-.7-17.59,1.46-25.24,2.36-53.2,6.23-106.15,7.68-158.46-6.78a269,269,0,0,1-49.23-19.17c-11.6-5.83-23.27-11.54-34.73-17.65-30.26-16.17-61.1-16.26-92.46-3.7-6.17,2.48-12.22,5.27-18.35,7.85C6,722.78,3.49,724.79.23,724.1l.16.13c10-15.62,23.43-28.07,37.59-39.66,32.46-26.54,69.87-38.79,111.81-38.8,32,0,62.83,6.3,93.68,13.26,24.34,5.48,48.51,11.86,73.4,14.39,24.39,2.48,48,.48,68.72-14.56,1.3-.94,3-1.55,3.36-4.19-71.72,8.24-137.52-13.33-202.55-39.09,44.81,5,87.41-4.59,129.42-18.25,30.39-9.88,60.14-21.67,91-30.13,22.58-6.19,45.44-9.79,69-9.48,27.95.36,53.88,7.65,78.59,20.14,2.37,1.2,4.51,2.89,7.34,2.93,0,0,.59.08.82-.17s.06-.74.06-.74c-6.2-11.1-16.45-18.15-26.18-25.53a182.19,182.19,0,0,0-54-27.77c-3-1-6-2.08-10.25-3.59,12.28-6.52,24.4-8.48,36.4-10.65,28.36-5.13,57-5.77,85.63-3.7,30.08,2.17,59.3,8.52,85.73,24.19,13.94,8.25,26,18.6,35.16,32,1.06,1.55,1.58,3.84,4.64,3.88q-2.47-20.26-4.1-40.46c-2.1-25.81,0-51.26,4.93-76.46,9.52-49.16,31.8-91.58,69-125.63,9-8.29,18.53-16.1,30.12-22,1.22,4.6-1.59,7.43-3.14,10.44-9.65,18.74-17.33,38.16-21.38,58.94-3.16,16.22-3.8,32.35.89,48.41a54,54,0,0,0,8.14,17.42c2.17-.21,2.2-1.33,2-2.15-9.32-32.43-.44-61.78,15.31-89.92,12-21.37,27.32-40.17,44.23-57.77,25-26,52.81-48.81,82.26-69.61,2.69-1.9,5.52-3.6,10.39-6.75-15.08,33.86-30.82,65.57-19.72,103,4.13-2.64,4.49-6.13,5.69-9.07,14.25-34.92,30.48-68.81,51.64-100.18,21.3-31.57,47.33-58.37,79.17-79.48,13.6-9,27.52-17.54,40.71-27.19,23.1-16.89,35.7-39.92,40.36-67.67,1.81-10.8,3-21.71,4.52-32.64,2.84.45,2.89,3.16,3.66,5.11,9.41,23.74,15.12,48.39,15.3,73.9.29,40.79-14.3,76.81-37.54,109.68a464.93,464.93,0,0,1-38.75,47c-17,18.34-34.41,36.25-49.78,56-12.17,15.64-22.38,32.31-26.35,52.12a78.12,78.12,0,0,0-.53,25.3c3.14,1.06,3.53-1,4.06-2.32,10.23-26.1,26.33-48.52,44.13-69.79,23-27.44,49.23-51.51,76.86-74.13,2.43-2,4.5-5.13,8.41-4.67h0a15,15,0,0,1-1.33,3.66c-20.69,29.76-32.88,63.11-40.62,98.14-6.6,29.87-12,60-18.16,90-5.19,25.17-12.39,49.7-24,72.8-15,29.61-36.67,52.93-64.53,70.7-2.7,1.72-5.93,2.85-8.08,6.86,38.11-6.37,68.93-25,97.61-51.66A58.47,58.47,0,0,1,1099,524.8,330.21,330.21,0,0,1,1038.53,641a181.51,181.51,0,0,1-24.92,25.88c-24.12,20.19-39.57,27.1-72,32.46,3.33,3.16,7.22,4.14,10.74,5.62,33.11,13.92,63.83,31.79,90.55,55.93,41.52,37.52,67.55,83.54,75,139.44.44,3.29.45,6.64.56,10,.08,2.64,0,5.28,0,8.62-3.65-1.44-4.54-4.44-6-6.76-13.62-21.11-28.91-40.76-49.21-56-13.54-10.15-28.42-17.25-45.44-19.24a60.57,60.57,0,0,0-7-.38,18.63,18.63,0,0,0-3.47.58c-.67,1.6,0,2.4,1,2.61,32.28,7.18,53.45,28.54,70.15,55.34,17.09,27.44,27.06,57.75,34.8,88.91a588.32,588.32,0,0,1,14.77,92.52c.14,1.65,0,3.32,0,5.82-3.46-1.85-4.6-4.94-6.29-7.46-11.39-17-24.18-32.66-40.69-45-11.62-8.67-21.35-12.81-32-13.49,0,4.13,3.21,6.3,5.29,9,22.73,29.25,43.58,59.69,60,93,18.08,36.62,28.49,75,30.36,116,.62,13.58,1.22,27.22,2.56,40.82,3.17,32.19,20.26,55.7,44.74,74.94,6.25,4.9,12.77,9.46,19.92,14.74-2.92,2.08-5.53,1.28-7.82.89-35.37-6-68.07-18.24-95.9-41.71-19.16-16.17-33.47-36-45-58.07-15.69-30-25.09-62.3-35.09-94.41-7.22-23.21-14.42-46.46-26.75-67.64-8.16-14-18.29-26.22-32.76-34.22-3.2-1.77-6.25-3.9-10.13-3.9l-1,0c-.42,0,.07.9.07.9,7.6,12.08,16.25,23.47,22.71,36.29,18.26,36.28,29.41,74.87,37.73,114.41,2.05,9.76,3.82,19.58,5.53,29.41.55,3.16,1.41,6.41-.2,10.85-3.8-7.09-7-13.49-10.61-19.71-17.77-31-42.18-56.45-68.64-80-24.36-21.72-50.22-41.75-73.41-64.78-17.8-17.69-33.51-36.94-45-59.51-12.33-24.21-18-49.93-19.31-76.83a11.27,11.27,0,0,0-1.12-5.1c-8,16.47-10.18,34.18-10.91,52.21s2.08,35.71,6.08,53c-3.6,2-5.09-.42-6.71-1.76-13.49-11.11-24-24.87-34.2-38.91-22.5-31.29-40.71-64.79-50.14-102.53-5.65-22.6-7.26-45.35-.82-68.08,2.07-7.31,5.08-14.35,7.67-21.52m164.06,28.07c.84,1-1,.42.27.75.2,0,.59.07.6,0,.2-.62-.11-.89-.85-.78,1-3.73-.31-7.21-1.18-10.75C868,796.23,856.93,751,845.61,705.82a30.74,30.74,0,0,1,0-15.65c8.87-35.15,17.52-70.35,26.18-105.56,3.39-13.77,6.63-27.58,10-41.58-4.07-.21-5.4,2.49-7.22,4.23-33.89,32.5-67.84,64.94-101.46,97.73a44.06,44.06,0,0,1-19.54,11.14Q687.39,675,621.26,694.23c-2.94.85-6.18,1.26-8.51,3.34,1.27,2.6,3.1,2.43,4.62,2.88C663.07,713.69,708.73,727,754.49,740A44.16,44.16,0,0,1,774,751.33q46.83,45.72,94,91.07c3.79,3.6,7.2,7.82,12.32,9.82Z"/><path class="cls-1" d="M3454.17,711.56c1.3,3.15,3.15,4.06,4.67,5.3,24,19.51,36.15,45.3,37,75.64,1.07,38.3.41,76.64.4,115,0,6.86-.21,7-7.46,7q-25,.15-50,0c-8,0-8.16-.15-8.17-8.4-.05-33.66-.56-67.33.14-101,.59-28.17-14-44.92-38.14-53.15-17.23-5.87-35.09-7.71-53.13-7.77-45.66-.15-91.31-.07-137,0-8.38,0-8.47.13-8.47,9v148c0,2.67-.13,5.34,0,8,.2,3.81-1.46,5.38-5.28,5.36q-27.49-.12-55,0c-3.69,0-5.66-1.22-5.42-5.18.14-2.33,0-4.67,0-7V512.46c0-13.65-1.41-12.22,12.34-12.21,73.31,0,146.63-.36,219.93.41,28.06.3,55.64,5.23,81.51,17.24,38.65,18,57.61,48.88,59.86,90.7,1.39,25.85-3.09,50.4-17.49,72.54C3476.62,693.35,3466.09,702.92,3454.17,711.56Zm-173-151v-.45h-78.88c-8.11,0-8.24.14-8.25,8.24q-.08,53.42,0,106.84c0,8.59.12,8.68,8.87,8.69,44.93,0,89.87.31,134.8-.13,19-.19,37.81-2.55,55.78-9.38,11.33-4.3,21.91-9.94,30-19.16,24.5-28,15.21-69.83-18.82-84.93-14.8-6.56-30.6-9.24-46.58-9.59-25.63-.58-51.26-.17-76.89-.17Z"/><path class="cls-1" d="M3870.9,918.46c-41.32.33-79.16-4.33-115.35-18.46-27.88-10.87-52.11-26.84-68.66-52.59-11-17.13-16.87-36-18.86-56.25-1.3-13.31-1.16-26.6-1.39-39.92-.09-5,1.43-7.15,6.78-7.08,17.66.24,35.33.21,53,0,4.87-.06,6.29,1.9,6.34,6.51.11,10.63-.06,21.24.94,31.91,2.7,28.79,18.14,47.91,43.44,60,15.77,7.55,32.66,11.19,49.88,13.61,19.22,2.7,38.55,2.53,57.86,2.11,22.1-.49,43.75-3.91,64.45-12,10.63-4.18,20.52-9.51,28.51-18,19.46-20.57,13.61-55-11.57-67.63-17.16-8.6-35.79-12.42-54.32-16.49-40.29-8.85-81.06-15.51-121-26.07-23.9-6.33-47.42-13.66-67.85-28.28-32.15-23-45.69-54-41.37-93.44,4.38-39.93,26.73-65.7,62.12-81.48,22.41-10,46.29-14.34,70.6-16.88a423.38,423.38,0,0,1,64.88-1.49c29.71,1.45,58.86,6.15,86.43,18.27,41.94,18.44,66.85,50.47,76.22,94.91a174.07,174.07,0,0,1,4.08,34.65c0,7.33-.1,7.53-7,7.58-16.66.12-33.33-.11-50,.11-5,.07-6.77-1.52-7.28-6.72a231,231,0,0,0-5.18-31.47c-6.77-28.21-24.31-45.1-52.41-51.34-32.49-7.22-65.29-8-98.32-5-14.32,1.29-28.43,3.37-42,8.22-9.79,3.49-19,8-26.37,15.68a40.88,40.88,0,0,0,1.22,57.81,39.59,39.59,0,0,0,4.28,3.58c11.62,8.4,25.27,11.76,38.77,15.35,27.38,7.27,55.52,10.66,83.25,16.16,33.31,6.62,66.58,13.47,98.32,26,20.79,8.21,39.06,19.9,52.53,38.35,26.8,36.69,31.58,109-28.89,146-24.78,15.17-51.67,24.43-80.13,29.43A278.34,278.34,0,0,1,3870.9,918.46Z"/><path class="cls-1" d="M2851.75,918.64c-36.76.39-74.57-4.6-110.36-19.93-65.24-27.93-105.14-76.46-117.31-146.86-6-34.54-5.39-69.05,3.31-103.08,16.06-62.89,56.27-104.5,115.68-128.28,39.33-15.75,80.66-19.53,122.62-18.39,34.87.95,69,6,101.41,19.56,67.31,28.07,107.54,77.66,117.51,150.44,5.21,38,3.54,75.88-9.35,112.4-20.53,58.19-61.7,96.07-118.66,117.62C2925.77,913.79,2894,918.6,2851.75,918.64Zm1.74-60c22.9.55,45.72-1.79,67.85-8.56,50.46-15.45,83.73-47.82,96-99.89,5-21.18,5.72-42.72,3.31-64.47-5.69-51.46-31.33-88.13-79.29-108.52-22.63-9.62-46.51-13.77-70.93-14.87-33.13-1.5-65.95.4-97.4,12.12-43,16-71.23,45.72-82,90.76-5.31,22.19-6,44.74-3.12,67.44,7.36,57.41,38.37,95.87,92.64,115.4,23.45,8.41,47.91,11.05,72.94,10.56Z"/><path class="cls-1" d="M4092,707.16v-196c0-10.91,0-11,10.75-11h322.93c1.66,0,3.33.09,5,0,3.84-.2,5.33,1.67,5.31,5.4q-.09,24.5,0,49c0,3.63-1.24,5.68-5.17,5.54-2.66-.1-5.33,0-8,0h-253c-2.34,0-4.68.16-7,0-4.53-.35-6.63,1.23-6.61,6.16q.19,48.48,0,97c0,4.51,1.25,7,6.22,6.57,2.31-.2,4.66,0,7,0h221c2.33,0,4.68.19,7,0,5.37-.5,6.81,2.13,6.74,7.1-.2,15,0,30-.11,45-.06,7.12-.34,7.24-7.36,7.58-2.32.12-4.66,0-7,0h-225c-8.24.18-8.39.19-8.42,8.36-.07,25,0,50,0,75v31c0,11.33-.63,10.56,11.09,10.58h257.94c2.67,0,5.34.13,8,0,3.94-.18,5.22,1.8,5.2,5.48q-.12,24.49,0,49c0,3.69-1.3,5.63-5.2,5.45-2.33-.11-4.67,0-7,0H4104.4c-13.57,0-12.39,1.34-12.4-12.26Q4091.93,804.64,4092,707.16Z"/><path class="cls-1" d="M2157.18,522a10.19,10.19,0,0,0,2.71-.26c35.49-19.4,74.11-25,113.79-25.76,31.11-.63,61.94,1.58,92,10.32,42.73,12.45,76,36.43,93.82,78.67,8.37,19.86,12.35,40.72,13.09,62.2.2,6,.2,12,.2,18V901.1c0,2.67-.12,5.34,0,8,.17,3.69-1.22,5.45-5.16,5.43q-27.48-.16-55,0c-3.42,0-4.81-1.51-4.7-4.83.08-2.66,0-5.33,0-8V662.76a172.64,172.64,0,0,0-3-31.76c-6.52-34.82-26.86-57.1-60.7-67.2-29.22-8.71-59.09-9.11-89.12-6.65a159,159,0,0,0-40.9,8.67c-32.58,11.69-51.08,34.66-56.12,68.83a169.69,169.69,0,0,0-1.74,24.87V902.46c0,13.5,1.61,12-12.48,12.06q-23,.11-46,0c-7-.06-7-.23-7.18-7.39V512.23c0-13.13-1.34-11.92,11.62-12q21.49-.08,43,0c12.36,0,10.92-.83,11.08,11.52C2156.35,515,2155.69,518.39,2157.18,522Z"/><path class="cls-1" d="M4482.37,706.87V514c0-2-.05-4,0-6,.2-7.5.21-7.68,8-7.68,72.64,0,145.28-.37,217.91.51,26,.31,51.62,5,76,15.13,39.65,16.56,62.69,45.65,68.41,88.52,3.34,25,1.37,49.11-10.29,71.91-9.38,18.36-23.66,32.07-41,42.73-24.8,15.26-52,23.37-80.79,27.11-16.57,2.15-33.2,2.21-49.85,2.21h-111c-2.33,0-4.67.09-7,0-3.36-.07-4.81,1.62-4.78,4.87V901.25c0,2.66-.12,5.33,0,8,.17,4-1.88,5.19-5.53,5.17-18-.06-36-.14-54,.05-5,0-6.42-2.21-6.08-6.67.17-2.32,0-4.66,0-7Zm149.31-18.48h69c18.15-.6,35.77-3.71,52.19-11.8,15.72-7.76,29-18.14,33.45-36.17,6-24.22-.3-58.65-38.09-72a134.8,134.8,0,0,0-44-8c-49.31-.32-98.63-.24-148-.25-8.15,0-8.3.16-8.31,8.36q-.09,55.49,0,111c0,8.75.13,8.85,8.8,8.87Q4594.19,688.46,4631.68,688.39Z"/><path class="cls-1" d="M1666,641.53V512.59c0-2.34.11-4.67,0-7-.18-3.74,1.35-5.39,5.24-5.36q27,.15,54,0c4.54,0,5.8,2.09,5.57,6.1-.13,2.32,0,4.66,0,7V747.22c0,13,.77,26,3.49,38.72,6.65,31.14,24.49,52.57,54.82,63.24a148.93,148.93,0,0,0,37,8.12c30.31,2.56,60.59,2.9,90.21-5.58,41.13-11.78,62.89-38.92,65.77-81.63.38-5.65.45-11.32.45-17V511.2c0-11.69-1-10.92,10.66-10.93,16,0,32,.14,48-.08,5-.07,7.61,1.4,6.93,6.76a25,25,0,0,0,0,3q0,125-.11,249.89a189.93,189.93,0,0,1-8.92,58c-13.8,43-42.71,71.31-84.83,86.52-27.53,9.95-56.14,13.67-85.28,14.23-34.45.66-68.55-1.21-101.66-12-58.2-18.9-90.83-58.93-99.29-119.27a231,231,0,0,1-2-31.87Q1666,698.5,1666,641.53Z"/><path class="cls-1" d="M1622.11,655.22c0,46,.11,92,0,137.94-.07,19.16-3.55,37.76-11.36,55.37-13.86,31.26-38.29,50.92-70.26,60.84a216.71,216.71,0,0,1-126,1.29c-47-13.49-74.14-46.17-85.7-92.73-2-8-3-16.35-4.39-24.54-.78-4.42.33-6.86,5.54-6.81q27,.28,54,0c4.93-.07,6.07,2.07,6.52,6.48,1.15,11.3,3.6,22.33,8.33,32.76,6.12,13.48,16.06,22.61,30.24,27.16a93.62,93.62,0,0,0,17.48,4c23.63,2.79,47.15,2.7,70.46-2.84,19.78-4.7,31.94-16.81,36.46-36.72a142,142,0,0,0,3.31-31.7q-.09-136.44,0-272.87c0-14.17-1.66-12.54,12.94-12.62q20.49-.11,41,0c12.86,0,11.53-1.18,11.54,12Q1622.15,583.75,1622.11,655.22Z"/><path class="cls-1" d="M2514,707.11V511.27c0-12-.75-11,10.54-11,15.65,0,31.3-.08,47,0,7.23.05,7.24.21,7.5,7.12.07,1.67,0,3.33,0,5V902.06c0,13.87,1.45,12.39-12.11,12.46-14.32.07-28.64,0-43,0-10.44,0-9.92.68-9.92-9.6V707.11Z"/><path class="cls-1" d="M3562.05,706.18v-195c0-11.73-.6-11,10.7-11,15.67,0,31.33.15,47-.07,5.1-.08,7.47,1.61,7,6.85-.19,2,0,4,0,6V901.88c0,13.69,1.28,12.39-12.22,12.45q-21.5.09-43,0c-9.29,0-9.38-.09-9.39-9.25q-.06-54,0-108Z"/></g></g></svg>